<svg xmlns="http://www.w3.org/2000/svg" width="427.718" height="84.285" viewBox="0 0 427.718 84.285">
  <g id="Group_60754" data-name="Group 60754" transform="translate(-294.276 -407.473)">
    <g id="Group_60493" data-name="Group 60493" transform="translate(294.276 407.472)">
      <path id="Path_702" data-name="Path 702" d="M294.276,446.32h21.44a4.019,4.019,0,0,0,2.918-1.256l22.621-23.886a4.021,4.021,0,0,0,1.1-2.764V407.472H324.532a4.019,4.019,0,0,0-2.868,1.2l-26.236,26.716a4.019,4.019,0,0,0-1.152,2.816Z" transform="translate(-294.276 -407.472)" fill="#fff"/>
      <path id="Path_703" data-name="Path 703" d="M402.575,446.32h21.44a4.02,4.02,0,0,0,2.919-1.256l22.621-23.886a4.021,4.021,0,0,0,1.1-2.764V407.472H432.831a4.018,4.018,0,0,0-2.868,1.2l-26.236,26.716a4.019,4.019,0,0,0-1.152,2.816Z" transform="translate(-359.041 -407.472)" fill="#aff41f"/>
      <path id="Path_704" data-name="Path 704" d="M450.655,559.351H429.216a4.02,4.02,0,0,1-2.919-1.256l-22.621-23.886a4.02,4.02,0,0,1-1.1-2.764V520.5H420.4a4.018,4.018,0,0,1,2.868,1.2L449.5,548.422a4.02,4.02,0,0,1,1.152,2.816Z" transform="translate(-359.041 -475.067)" fill="#eaffba"/>
      <path id="Path_705" data-name="Path 705" d="M342.357,559.351h-21.44A4.021,4.021,0,0,1,318,558.095l-22.621-23.886a4.02,4.02,0,0,1-1.1-2.764V520.5H312.1a4.018,4.018,0,0,1,2.868,1.2L341.2,548.422a4.019,4.019,0,0,1,1.152,2.816Z" transform="translate(-294.276 -475.067)" fill="#fff"/>
    </g>
    <g id="Group_60494" data-name="Group 60494" transform="translate(396.678 407.472)">
      <path id="Path_706" data-name="Path 706" d="M549.021,490.392V420.535a13.063,13.063,0,0,1,13.063-13.063h0v48.162h12.495l14.54-23.172h14.426L587.3,457.679a23.462,23.462,0,0,1,12.154,9.144,25.749,25.749,0,0,1,4.316,14.71v8.86H590.708v-8.86a14.638,14.638,0,0,0-1.931-7.44,14.306,14.306,0,0,0-5.225-5.282,14.556,14.556,0,0,0-7.5-1.931H562.084v23.513Z" transform="translate(-549.021 -407.472)" fill="#fff"/>
      <path id="Path_707" data-name="Path 707" d="M718,527.569v-41.46q0-7.723,4.373-12.1t12.1-4.374h13.972V480.77H736.856a5.643,5.643,0,0,0-4.26,1.59,5.96,5.96,0,0,0-1.533,4.317v40.892Z" transform="translate(-650.074 -444.648)" fill="#fff"/>
      <path id="Path_708" data-name="Path 708" d="M819.936,424.565a8.406,8.406,0,1,1,5.963-14.312,8.363,8.363,0,0,1,0,11.813A8.02,8.02,0,0,1,819.936,424.565Zm-6.474,66V445.693a13.062,13.062,0,0,1,13.062-13.063h0v57.931Z" transform="translate(-706.008 -407.641)" fill="#fff"/>
      <path id="Path_709" data-name="Path 709" d="M887.824,525.541v-33.4a26.027,26.027,0,0,1,3.407-13.347,24.075,24.075,0,0,1,9.655-9.2,30.558,30.558,0,0,1,14.653-3.351,30.236,30.236,0,0,1,14.6,3.351,24.176,24.176,0,0,1,9.6,9.2,26.03,26.03,0,0,1,3.407,13.347v33.4H930.193V492.26a14.777,14.777,0,0,0-21.979-13.006,14.141,14.141,0,0,0-5.339,5.225,14.964,14.964,0,0,0-1.988,7.781v33.282Z" transform="translate(-751.633 -442.621)" fill="#fff"/>
      <path id="Path_710" data-name="Path 710" d="M1087.135,526.9a31.043,31.043,0,0,1-15.9-4.033,30.4,30.4,0,0,1,0-52.592,33.152,33.152,0,0,1,31.692,0,30.136,30.136,0,0,1,10.961,10.848,30.44,30.44,0,0,1-10.961,41.744A30.826,30.826,0,0,1,1087.135,526.9Zm0-11.132a16.846,16.846,0,0,0,9.314-2.556,17.1,17.1,0,0,0,6.135-6.872,23.061,23.061,0,0,0,0-19.481,17.031,17.031,0,0,0-6.135-6.929,18.352,18.352,0,0,0-18.685,0,17.673,17.673,0,0,0-6.135,6.872,22.522,22.522,0,0,0,0,19.48,17.559,17.559,0,0,0,6.135,6.929A16.769,16.769,0,0,0,1087.135,515.773Z" transform="translate(-852.348 -442.621)" fill="#fff"/>
      <path id="Path_711" data-name="Path 711" d="M1236.53,516.437h27.943a6.882,6.882,0,0,0,3.579-.909,6.549,6.549,0,0,0,2.385-2.385,6.054,6.054,0,0,0,.852-3.067,6.214,6.214,0,0,0-.8-3.181,6.094,6.094,0,0,0-2.271-2.215,6.7,6.7,0,0,0-3.408-.852h-11.359a25.262,25.262,0,0,1-9.882-1.818,14.818,14.818,0,0,1-6.815-5.623,17.14,17.14,0,0,1-2.5-9.6,16.185,16.185,0,0,1,2.329-8.519,18.11,18.11,0,0,1,6.3-6.247,17.1,17.1,0,0,1,8.974-2.385h15.789a11.132,11.132,0,0,1,11.131,11.132h-25.67a5.961,5.961,0,0,0-4.317,1.647,5.556,5.556,0,0,0,0,8.008,6.139,6.139,0,0,0,4.543,1.7h11.018a26.652,26.652,0,0,1,10.677,1.931,14.349,14.349,0,0,1,6.759,5.793,18.673,18.673,0,0,1,2.329,9.768,17.587,17.587,0,0,1-2.385,8.917,17.861,17.861,0,0,1-6.531,6.588,18.108,18.108,0,0,1-9.371,2.442h-18.175A11.132,11.132,0,0,1,1236.53,516.437Z" transform="translate(-958.807 -444.648)" fill="#fff"/>
    </g>
  </g>
</svg>
