<?xml version="1.0" encoding="utf-8"?>
<!-- Generator: Adobe Illustrator 16.0.0, SVG Export Plug-In . SVG Version: 6.00 Build 0)  -->
<!DOCTYPE svg PUBLIC "-//W3C//DTD SVG 1.1//EN" "http://www.w3.org/Graphics/SVG/1.1/DTD/svg11.dtd">
<svg version="1.1" id="Layer_1" xmlns="http://www.w3.org/2000/svg" xmlns:xlink="http://www.w3.org/1999/xlink" x="0px" y="0px"
	 width="512px" height="512px" viewBox="0 0 512 512" enable-background="new 0 0 512 512" xml:space="preserve">
<g id="Page-1">
	<g id="_x30_26---Edit-File">
		<path id="Shape" fill="#FFD200" d="M448,324.267c-4.713,0-8.533,3.821-8.533,8.533v17.067c0,4.713,3.82,8.533,8.533,8.533
			s8.533-3.82,8.533-8.533V332.8C456.533,328.088,452.713,324.267,448,324.267z"/>
		<path id="Shape_1_" fill="#FFD200" d="M448,0H106.667C83.114,0.028,64.028,19.114,64,42.667v307.201
			c0,4.713,3.82,8.533,8.533,8.533s8.534-3.82,8.534-8.533V42.667c0-14.138,11.461-25.6,25.6-25.6H448
			c14.139,0,25.6,11.462,25.6,25.6v332.8h-59.732c-23.553,0.028-42.639,19.114-42.667,42.667v59.733H166.4
			c-4.713,0-8.533,3.82-8.533,8.533s3.82,8.533,8.533,8.533h213.333c2.263-0.001,4.433-0.9,6.033-2.5l102.399-102.4
			c1.601-1.6,2.5-3.77,2.501-6.033V42.667C490.639,19.114,471.553,0.028,448,0z M413.867,392.533h47.667l-73.268,73.268v-47.667
			C388.267,403.995,399.729,392.533,413.867,392.533z"/>
		<path id="Shape_2_" fill="#FFD200" d="M123.733,68.267H140.8c4.713,0,8.534-3.82,8.534-8.533S145.513,51.2,140.8,51.2h-17.066
			c-4.713,0-8.533,3.82-8.533,8.533S119.021,68.267,123.733,68.267z"/>
		<path id="Shape_3_" fill="#FFD200" d="M430.934,51.2h-256c-4.712,0-8.533,3.82-8.533,8.533s3.821,8.533,8.533,8.533h256
			c4.713,0,8.533-3.82,8.533-8.533S435.646,51.2,430.934,51.2z"/>
		<path id="Shape_4_" fill="#FFD200" d="M123.733,119.467H140.8c4.713,0,8.534-3.821,8.534-8.533c0-4.713-3.821-8.534-8.534-8.534
			h-17.066c-4.713,0-8.533,3.821-8.533,8.534C115.2,115.646,119.021,119.467,123.733,119.467z"/>
		<path id="Shape_5_" fill="#FFD200" d="M174.933,119.467H371.2c4.713,0,8.533-3.821,8.533-8.533c0-4.713-3.82-8.534-8.533-8.534
			H174.933c-4.712,0-8.533,3.821-8.533,8.534C166.4,115.646,170.221,119.467,174.933,119.467z"/>
		<path id="Shape_6_" fill="#FFD200" d="M123.733,170.667H140.8c4.713,0,8.534-3.82,8.534-8.533s-3.821-8.533-8.534-8.533h-17.066
			c-4.713,0-8.533,3.82-8.533,8.533S119.021,170.667,123.733,170.667z"/>
		<path id="Shape_7_" fill="#FFD200" d="M174.933,170.667h51.2c4.713,0,8.533-3.82,8.533-8.533s-3.82-8.533-8.533-8.533h-51.2
			c-4.712,0-8.533,3.82-8.533,8.533S170.221,170.667,174.933,170.667z"/>
		<path id="Shape_8_" fill="#FFD200" d="M456.533,179.2c0-4.713-3.82-8.534-8.533-8.534s-8.533,3.821-8.533,8.534v119.466
			c0,4.713,3.82,8.534,8.533,8.534s8.533-3.821,8.533-8.534V179.2z"/>
		<path id="Shape_9_" fill="#FFD200" d="M52.591,409.472l-29.653,78.959c-1.953,5.227-1.228,11.078,1.942,15.67
			s8.384,7.344,13.964,7.37c2.075-0.003,4.132-0.376,6.076-1.101l78.959-29.619v-0.052c1.145-0.404,2.187-1.054,3.055-1.902
			L301.9,303.838l24.133-24.133l18.099-18.099c6.402-6.401,9.998-15.083,9.998-24.137c0-9.053-3.596-17.735-9.998-24.136
			L320,189.201c-6.401-6.402-15.084-9.998-24.137-9.998s-17.734,3.596-24.137,9.998L253.628,207.3l-24.132,24.141L54.511,406.417
			C53.656,407.283,53,408.326,52.591,409.472L52.591,409.472z M38.938,494.413l24.96-66.561l41.575,41.601L38.938,494.413z
			 M295.867,285.738l-24.141-24.132l-24.132-24.132l12.065-12.075l48.273,48.273L295.867,285.738z M283.793,201.259
			c6.752-6.455,17.389-6.455,24.141,0l24.133,24.132c3.202,3.201,5.001,7.542,5.001,12.07c0,4.527-1.799,8.87-5.001,12.07
			L320,261.606l-48.273-48.273L283.793,201.259z M235.52,249.54l18.099,18.1l-60.339,60.339c-2.218,2.143-3.108,5.315-2.327,8.299
			c0.781,2.983,3.111,5.313,6.094,6.095c2.983,0.78,6.156-0.108,8.299-2.327l60.347-60.34l18.108,18.108L120.875,460.731
			l-18.099-18.107l72.405-72.405c3.234-3.348,3.188-8.671-0.104-11.963c-3.292-3.291-8.614-3.338-11.962-0.104l-72.405,72.405
			L72.61,412.45L235.52,249.54z"/>
	</g>
</g>
</svg>
