<?xml version="1.0" encoding="utf-8"?>
<!-- Generator: Adobe Illustrator 16.0.0, SVG Export Plug-In . SVG Version: 6.00 Build 0)  -->
<!DOCTYPE svg PUBLIC "-//W3C//DTD SVG 1.1//EN" "http://www.w3.org/Graphics/SVG/1.1/DTD/svg11.dtd">
<svg version="1.1" id="Capa_1" xmlns="http://www.w3.org/2000/svg" xmlns:xlink="http://www.w3.org/1999/xlink" x="0px" y="0px"
	 width="512px" height="512px" viewBox="0 0 512 512" enable-background="new 0 0 512 512" xml:space="preserve">
<g>
	<path fill="#FFD200" d="M484.5,18h-457C12.336,18,0,30.336,0,45.5v25C0,74.643,3.358,78,7.5,78s7.5-3.357,7.5-7.5v-25
		C15,38.607,20.607,33,27.5,33h457c6.893,0,12.5,5.607,12.5,12.5v325c0,6.893-5.607,12.5-12.5,12.5h-457
		c-6.893,0-12.5-5.607-12.5-12.5v-265c0-4.143-3.358-7.5-7.5-7.5S0,101.357,0,105.5v265C0,385.664,12.336,398,27.5,398h153.891
		l-15.454,51H156.5c-12.407,0-22.5,10.094-22.5,22.5s10.093,22.5,22.5,22.5h199c12.407,0,22.5-10.094,22.5-22.5
		S367.907,449,355.5,449h-9.436l-15.455-51H484.5c15.164,0,27.5-12.336,27.5-27.5v-325C512,30.336,499.664,18,484.5,18z
		 M330.391,449h-14.724c-4.142,0-7.5,3.357-7.5,7.5s3.358,7.5,7.5,7.5H355.5c4.136,0,7.5,3.364,7.5,7.5s-3.364,7.5-7.5,7.5h-199
		c-4.136,0-7.5-3.364-7.5-7.5s3.364-7.5,7.5-7.5h124.167c4.142,0,7.5-3.357,7.5-7.5s-3.358-7.5-7.5-7.5H181.61l15.454-51h117.872
		L330.391,449z"/>
	<path fill="#FFD200" d="M469.5,368c6.893,0,12.5-5.607,12.5-12.5v-295c0-6.893-5.607-12.5-12.5-12.5h-427
		C35.607,48,30,53.607,30,60.5v295c0,6.893,5.607,12.5,12.5,12.5H469.5z M45,93h92v260H45V93z M467,93v230H152V93H467z M152,353v-15
		h315v15H152z M467,63v15H45V63H467z"/>
	<path fill="#FFD200" d="M299.5,236h2.5v20c0,4.143,3.357,7.5,7.5,7.5c4.142,0,7.5-3.357,7.5-7.5v-20h2.5
		c6.893,0,12.5-5.607,12.5-12.5V148c0-6.893-5.607-12.5-12.5-12.5H317v-20c0-4.143-3.358-7.5-7.5-7.5c-4.143,0-7.5,3.357-7.5,7.5v20
		h-2.5c-6.893,0-12.5,5.607-12.5,12.5v75.5C287,230.393,292.607,236,299.5,236z M302,150.5h15V221h-15V150.5z"/>
	<path fill="#FFD200" d="M419.5,281h2.5v20c0,4.143,3.358,7.5,7.5,7.5s7.5-3.357,7.5-7.5v-20h2.5c6.893,0,12.5-5.607,12.5-12.5v-40
		c0-6.893-5.607-12.5-12.5-12.5H437v-20c0-4.143-3.358-7.5-7.5-7.5s-7.5,3.357-7.5,7.5v20h-2.5c-6.893,0-12.5,5.607-12.5,12.5v40
		C407,275.393,412.607,281,419.5,281z M422,231h15v35h-15V231z"/>
	<path fill="#FFD200" d="M359.5,231h2.5v20c0,4.143,3.358,7.5,7.5,7.5s7.5-3.357,7.5-7.5v-20h2.5c6.893,0,12.5-5.607,12.5-12.5v-43
		c0-6.893-5.607-12.5-12.5-12.5H377v-20c0-4.143-3.358-7.5-7.5-7.5s-7.5,3.357-7.5,7.5v20h-2.5c-6.893,0-12.5,5.607-12.5,12.5v43
		C347,225.393,352.607,231,359.5,231z M362,178h15v38h-15V178z"/>
	<path fill="#FFD200" d="M239.5,263h2.5v20c0,4.143,3.358,7.5,7.5,7.5s7.5-3.357,7.5-7.5v-20h2.5c6.893,0,12.5-5.607,12.5-12.5v-36
		c0-6.893-5.607-12.5-12.5-12.5H257v-20c0-4.143-3.358-7.5-7.5-7.5s-7.5,3.357-7.5,7.5v20h-2.5c-6.893,0-12.5,5.607-12.5,12.5v36
		C227,257.393,232.607,263,239.5,263z M242,217h15v31h-15V217z"/>
	<path fill="#FFD200" d="M179.5,281h2.5v20c0,4.143,3.358,7.5,7.5,7.5s7.5-3.357,7.5-7.5v-20h2.5c6.893,0,12.5-5.607,12.5-12.5v-20
		c0-6.893-5.607-12.5-12.5-12.5H197v-20c0-4.143-3.358-7.5-7.5-7.5s-7.5,3.357-7.5,7.5v20h-2.5c-6.893,0-12.5,5.607-12.5,12.5v20
		C167,275.393,172.607,281,179.5,281z M182,251h15v15h-15V251z"/>
	<path fill="#FFD200" d="M94.5,301.5h-27c-4.142,0-7.5,3.357-7.5,7.5s3.358,7.5,7.5,7.5h27c4.142,0,7.5-3.357,7.5-7.5
		S98.642,301.5,94.5,301.5z"/>
	<path fill="#FFD200" d="M114.5,271.5h-47c-4.142,0-7.5,3.357-7.5,7.5s3.358,7.5,7.5,7.5h47c4.142,0,7.5-3.357,7.5-7.5
		S118.642,271.5,114.5,271.5z"/>
	<path fill="#FFD200" d="M67.5,256.5h27c4.142,0,7.5-3.357,7.5-7.5s-3.358-7.5-7.5-7.5h-27c-4.142,0-7.5,3.357-7.5,7.5
		S63.358,256.5,67.5,256.5z"/>
	<path fill="#FFD200" d="M114.5,211.5h-47c-4.142,0-7.5,3.357-7.5,7.5s3.358,7.5,7.5,7.5h47c4.142,0,7.5-3.357,7.5-7.5
		S118.642,211.5,114.5,211.5z"/>
	<path fill="#FFD200" d="M114.5,181.5h-47c-4.142,0-7.5,3.357-7.5,7.5s3.358,7.5,7.5,7.5h47c4.142,0,7.5-3.357,7.5-7.5
		S118.642,181.5,114.5,181.5z"/>
	<path fill="#FFD200" d="M67.5,166.5h27c4.142,0,7.5-3.357,7.5-7.5s-3.358-7.5-7.5-7.5h-27c-4.142,0-7.5,3.357-7.5,7.5
		S63.358,166.5,67.5,166.5z"/>
	<path fill="#FFD200" d="M67.5,136.5h47c4.142,0,7.5-3.357,7.5-7.5s-3.358-7.5-7.5-7.5h-47c-4.142,0-7.5,3.357-7.5,7.5
		S63.358,136.5,67.5,136.5z"/>
</g>
</svg>
