<?xml version="1.0" encoding="utf-8"?>
<!-- Generator: Adobe Illustrator 16.0.0, SVG Export Plug-In . SVG Version: 6.00 Build 0)  -->
<!DOCTYPE svg PUBLIC "-//W3C//DTD SVG 1.1//EN" "http://www.w3.org/Graphics/SVG/1.1/DTD/svg11.dtd">
<svg version="1.1" id="Layer_1" xmlns="http://www.w3.org/2000/svg" xmlns:xlink="http://www.w3.org/1999/xlink" x="0px" y="0px"
	 width="512px" height="512px" viewBox="0 0 512 512" enable-background="new 0 0 512 512" xml:space="preserve">
<g id="Page-1">
	<g id="_x30_21---Tick-File">
		<path id="Shape" fill="#FFD200" d="M490.667,42.667C490.639,19.114,471.553,0.028,448,0H106.667
			C83.114,0.028,64.028,19.114,64,42.667v298.667c0,4.713,3.82,8.533,8.533,8.533s8.534-3.82,8.534-8.533V42.667
			c0-14.138,11.461-25.6,25.6-25.6H448c14.139,0,25.6,11.462,25.6,25.6v332.8h-59.732c-23.553,0.028-42.639,19.114-42.667,42.667
			v59.733H209.067c-4.713,0-8.534,3.82-8.534,8.533s3.821,8.533,8.534,8.533h170.667c2.263-0.001,4.433-0.9,6.033-2.5l102.399-102.4
			c1.601-1.6,2.5-3.77,2.501-6.033V42.667z M413.867,392.533h47.667l-73.268,73.268v-47.667
			C388.267,403.995,399.729,392.533,413.867,392.533z"/>
		<path id="Shape_1_" fill="#FFD200" d="M21.333,409.6c-0.026,9.058,3.576,17.748,10.001,24.133l68.267,68.267
			c6.388,6.419,15.076,10.02,24.132,10.001c0.904,0,1.817,0,2.748-0.111c9.982-0.799,19.107-5.947,24.952-14.08l153.601-213.333
			c7.285-9.89,8.695-22.931,3.691-34.149c-5.004-11.218-15.649-18.883-27.876-20.069c-12.226-1.187-24.147,4.288-31.214,14.334
			l-10.769,14.959c-1.855,2.471-2.23,5.752-0.98,8.577c1.25,2.826,3.931,4.755,7.007,5.043s6.068-1.109,7.822-3.653l10.77-14.95
			c3.507-5.088,9.49-7.883,15.644-7.307c6.153,0.577,11.514,4.435,14.015,10.086c2.5,5.651,1.751,12.213-1.959,17.154
			L137.583,487.834c-2.914,4.066-7.472,6.642-12.459,7.04c-4.991,0.389-9.904-1.415-13.457-4.941L43.4,421.666
			c-6.663-6.664-6.663-17.468,0-24.132c6.751-6.45,17.381-6.45,24.132,0l46.984,46.976c1.762,1.785,4.227,2.692,6.725,2.475
			c2.491-0.203,4.768-1.488,6.229-3.516L228.164,303.65c1.855-2.471,2.23-5.752,0.98-8.578c-1.25-2.825-3.931-4.754-7.007-5.042
			s-6.068,1.108-7.822,3.653l-94.848,131.669l-39.859-39.885c-13.514-12.878-34.759-12.878-48.273,0
			C24.91,391.852,21.308,400.543,21.333,409.6L21.333,409.6z"/>
		<path id="Shape_2_" fill="#FFD200" d="M140.8,51.2h-17.066c-4.713,0-8.533,3.82-8.533,8.533s3.82,8.533,8.533,8.533H140.8
			c4.713,0,8.534-3.82,8.534-8.533S145.513,51.2,140.8,51.2z"/>
		<path id="Shape_3_" fill="#FFD200" d="M430.934,51.2h-256c-4.712,0-8.533,3.82-8.533,8.533s3.821,8.533,8.533,8.533h256
			c4.713,0,8.533-3.82,8.533-8.533S435.646,51.2,430.934,51.2z"/>
		<path id="Shape_4_" fill="#FFD200" d="M140.8,102.4h-17.066c-4.713,0-8.533,3.821-8.533,8.534c0,4.712,3.82,8.533,8.533,8.533
			H140.8c4.713,0,8.534-3.821,8.534-8.533C149.333,106.221,145.513,102.4,140.8,102.4z"/>
		<path id="Shape_5_" fill="#FFD200" d="M174.933,119.467H371.2c4.713,0,8.533-3.821,8.533-8.533c0-4.713-3.82-8.534-8.533-8.534
			H174.933c-4.712,0-8.533,3.821-8.533,8.534C166.4,115.646,170.221,119.467,174.933,119.467z"/>
		<path id="Shape_6_" fill="#FFD200" d="M140.8,153.6h-17.066c-4.713,0-8.533,3.82-8.533,8.533s3.82,8.533,8.533,8.533H140.8
			c4.713,0,8.534-3.82,8.534-8.533S145.513,153.6,140.8,153.6z"/>
		<path id="Shape_7_" fill="#FFD200" d="M174.933,170.667h136.534c4.713,0,8.533-3.82,8.533-8.533s-3.82-8.533-8.533-8.533H174.933
			c-4.712,0-8.533,3.82-8.533,8.533S170.221,170.667,174.933,170.667z"/>
		<path id="Shape_8_" fill="#FFD200" d="M456.533,179.2c0-4.713-3.82-8.534-8.533-8.534s-8.533,3.821-8.533,8.534v119.466
			c0,4.713,3.82,8.534,8.533,8.534s8.533-3.821,8.533-8.534V179.2z"/>
		<path id="Shape_9_" fill="#FFD200" d="M448,324.267c-4.713,0-8.533,3.821-8.533,8.533v17.067c0,4.713,3.82,8.533,8.533,8.533
			s8.533-3.82,8.533-8.533V332.8C456.533,328.088,452.713,324.267,448,324.267z"/>
	</g>
</g>
</svg>
