<svg width="190" height="190" viewBox="0 0 190 190" fill="none" xmlns="http://www.w3.org/2000/svg">
<circle cx="94" cy="95" r="89" fill="#FBFBFB"/>
<path d="M60.8007 46.1562C60.8007 45.0517 61.6961 44.1562 62.8007 44.1562H143C144.105 44.1562 145 45.0517 145 46.1562V132.318C145 139.881 138.869 146.013 131.305 146.013H53.415L54.6177 144.968C58.5454 141.554 60.8007 136.605 60.8007 131.401V113.915V46.1562Z" fill="#16B979"/>
<rect x="72" y="123" width="64" height="6" fill="#5DD49C"/>
<path d="M44 90.6641C44 89.5595 44.8954 88.6641 46 88.6641H61.1188V137.453C61.1188 142.18 57.2866 146.012 52.5594 146.012C47.8322 146.012 44 142.18 44 137.453V90.6641Z" fill="#6E7BF4"/>
<path d="M86.9999 85C95.2841 85 102 78.2843 102 70.0001C102 61.7159 95.2841 55.0002 86.9999 55.0002C78.7157 55.0002 72 61.7159 72 70.0001C72 78.2843 78.7157 85 86.9999 85Z" fill="#FF9D42"/>
<path d="M86.9996 82.2948C93.7901 82.2948 99.295 76.7899 99.295 69.9993C99.295 63.2087 93.7901 57.7039 86.9996 57.7039C80.209 57.7039 74.7041 63.2087 74.7041 69.9993C74.7041 76.7899 80.209 82.2948 86.9996 82.2948Z" fill="#FAAD14"/>
<path d="M89.9474 69.571C90.6998 69.186 91.1785 68.5015 91.0674 67.3636C90.922 65.8064 89.6442 65.2845 87.9515 65.139V62.9829H86.635V65.0791C86.293 65.0791 85.9425 65.0877 85.592 65.0962V62.9829H84.2754V65.139C83.7914 65.1537 83.2276 65.1465 81.6338 65.139V66.5422C82.6732 66.5238 83.2186 66.4569 83.3436 67.124V73.0276C83.2642 73.5569 82.841 73.4807 81.8988 73.464L81.6338 75.0297C84.0343 75.0297 84.2754 75.0383 84.2754 75.0383V76.8848H85.592V75.0639C85.951 75.0725 86.3016 75.0725 86.635 75.0725V76.8848H87.9515V75.0383C90.1572 74.9185 91.6316 74.3624 91.8282 72.2832C91.9821 70.6149 91.1956 69.8705 89.9474 69.571ZM85.6176 66.6363C86.3614 66.6363 88.6867 66.4053 88.6867 67.9539C88.6867 69.4341 86.3614 69.263 85.6176 69.263V66.6363ZM85.6176 73.4725V70.5806C86.5067 70.5806 89.2293 70.3325 89.2293 72.0266C89.2293 73.6608 86.5067 73.4725 85.6176 73.4725Z" fill="white"/>
<line x1="73.5" y1="109.002" x2="123.161" y2="80.3296" stroke="#E8F8F2" stroke-width="6"/>
<path d="M118.669 74.5926L125.71 86.7877C126.106 87.4731 127.103 87.449 127.465 86.7455L133.566 74.8945C133.904 74.2392 133.44 73.4564 132.703 73.4371L119.561 73.0929C118.78 73.0725 118.278 73.9158 118.669 74.5926Z" fill="#E8F8F2"/>
<path d="M106.59 110.73L109.34 108.07C109.42 107.99 109.503 107.907 109.59 107.82C109.677 107.727 109.753 107.63 109.82 107.53C109.893 107.43 109.953 107.327 110 107.22C110.047 107.107 110.07 106.99 110.07 106.87C110.07 106.723 110.04 106.593 109.98 106.48C109.927 106.367 109.853 106.27 109.76 106.19C109.667 106.11 109.557 106.05 109.43 106.01C109.31 105.963 109.18 105.94 109.04 105.94C108.74 105.94 108.493 106.027 108.3 106.2C108.107 106.373 107.99 106.607 107.95 106.9L106.69 106.8C106.717 106.473 106.793 106.187 106.92 105.94C107.053 105.687 107.223 105.477 107.43 105.31C107.637 105.143 107.877 105.017 108.15 104.93C108.423 104.843 108.72 104.8 109.04 104.8C109.36 104.8 109.657 104.843 109.93 104.93C110.21 105.01 110.453 105.133 110.66 105.3C110.867 105.46 111.03 105.667 111.15 105.92C111.27 106.173 111.33 106.47 111.33 106.81C111.33 107.257 111.227 107.643 111.02 107.97C110.82 108.29 110.56 108.597 110.24 108.89L108.05 110.92H111.33V112H106.59V110.73ZM112.318 108.46C112.318 107.9 112.361 107.423 112.448 107.03C112.541 106.63 112.661 106.297 112.808 106.03C112.955 105.757 113.118 105.54 113.298 105.38C113.485 105.213 113.671 105.09 113.858 105.01C114.051 104.923 114.235 104.867 114.408 104.84C114.588 104.813 114.745 104.8 114.878 104.8C115.011 104.8 115.165 104.813 115.338 104.84C115.518 104.867 115.701 104.923 115.888 105.01C116.081 105.09 116.268 105.213 116.448 105.38C116.635 105.54 116.801 105.757 116.948 106.03C117.095 106.297 117.211 106.63 117.298 107.03C117.391 107.423 117.438 107.9 117.438 108.46C117.438 109.02 117.391 109.5 117.298 109.9C117.211 110.293 117.095 110.627 116.948 110.9C116.801 111.167 116.635 111.383 116.448 111.55C116.268 111.71 116.081 111.833 115.888 111.92C115.701 112 115.518 112.053 115.338 112.08C115.165 112.107 115.011 112.12 114.878 112.12C114.745 112.12 114.588 112.107 114.408 112.08C114.235 112.053 114.051 112 113.858 111.92C113.671 111.833 113.485 111.71 113.298 111.55C113.118 111.383 112.955 111.167 112.808 110.9C112.661 110.627 112.541 110.293 112.448 109.9C112.361 109.5 112.318 109.02 112.318 108.46ZM113.518 108.46C113.518 108.68 113.531 108.937 113.558 109.23C113.591 109.517 113.655 109.79 113.748 110.05C113.841 110.31 113.978 110.53 114.158 110.71C114.338 110.89 114.578 110.98 114.878 110.98C115.178 110.98 115.418 110.89 115.598 110.71C115.778 110.53 115.915 110.31 116.008 110.05C116.101 109.79 116.161 109.517 116.188 109.23C116.221 108.937 116.238 108.68 116.238 108.46C116.238 108.24 116.221 107.987 116.188 107.7C116.161 107.407 116.101 107.13 116.008 106.87C115.915 106.61 115.778 106.39 115.598 106.21C115.418 106.03 115.178 105.94 114.878 105.94C114.578 105.94 114.338 106.03 114.158 106.21C113.978 106.39 113.841 106.61 113.748 106.87C113.655 107.13 113.591 107.407 113.558 107.7C113.531 107.987 113.518 108.24 113.518 108.46ZM118.236 108.46C118.236 107.9 118.279 107.423 118.366 107.03C118.459 106.63 118.579 106.297 118.726 106.03C118.873 105.757 119.036 105.54 119.216 105.38C119.403 105.213 119.589 105.09 119.776 105.01C119.969 104.923 120.153 104.867 120.326 104.84C120.506 104.813 120.663 104.8 120.796 104.8C120.929 104.8 121.083 104.813 121.256 104.84C121.436 104.867 121.619 104.923 121.806 105.01C121.999 105.09 122.186 105.213 122.366 105.38C122.553 105.54 122.719 105.757 122.866 106.03C123.013 106.297 123.129 106.63 123.216 107.03C123.309 107.423 123.356 107.9 123.356 108.46C123.356 109.02 123.309 109.5 123.216 109.9C123.129 110.293 123.013 110.627 122.866 110.9C122.719 111.167 122.553 111.383 122.366 111.55C122.186 111.71 121.999 111.833 121.806 111.92C121.619 112 121.436 112.053 121.256 112.08C121.083 112.107 120.929 112.12 120.796 112.12C120.663 112.12 120.506 112.107 120.326 112.08C120.153 112.053 119.969 112 119.776 111.92C119.589 111.833 119.403 111.71 119.216 111.55C119.036 111.383 118.873 111.167 118.726 110.9C118.579 110.627 118.459 110.293 118.366 109.9C118.279 109.5 118.236 109.02 118.236 108.46ZM119.436 108.46C119.436 108.68 119.449 108.937 119.476 109.23C119.509 109.517 119.573 109.79 119.666 110.05C119.759 110.31 119.896 110.53 120.076 110.71C120.256 110.89 120.496 110.98 120.796 110.98C121.096 110.98 121.336 110.89 121.516 110.71C121.696 110.53 121.833 110.31 121.926 110.05C122.019 109.79 122.079 109.517 122.106 109.23C122.139 108.937 122.156 108.68 122.156 108.46C122.156 108.24 122.139 107.987 122.106 107.7C122.079 107.407 122.019 107.13 121.926 106.87C121.833 106.61 121.696 106.39 121.516 106.21C121.336 106.03 121.096 105.94 120.796 105.94C120.496 105.94 120.256 106.03 120.076 106.21C119.896 106.39 119.759 106.61 119.666 106.87C119.573 107.13 119.509 107.407 119.476 107.7C119.449 107.987 119.436 108.24 119.436 108.46ZM126.274 108.3L123.914 104.92H125.504L127.174 107.54L128.824 104.92H130.354L128.034 108.3L130.604 112H129.004L127.134 109.01L125.274 112H123.754L126.274 108.3Z" fill="white"/>
</svg>
