<svg width="200" height="200" viewBox="0 0 200 200" fill="none" xmlns="http://www.w3.org/2000/svg">
<circle cx="100" cy="100" r="89" fill="#FBFBFB"/>
<path d="M65 121C77.7026 121 88 110.703 88 98C88 85.2974 77.7026 75 65 75C52.2975 75 42 85.2974 42 98C42 110.703 52.2975 121 65 121Z" fill="#FF9D42"/>
<path d="M65.0007 116.852C75.413 116.852 83.8539 108.411 83.8539 97.9988C83.8539 87.5865 75.413 79.1456 65.0007 79.1456C54.5883 79.1456 46.1475 87.5865 46.1475 97.9988C46.1475 108.411 54.5883 116.852 65.0007 116.852Z" fill="#FAAD14"/>
<path d="M69.5202 97.3415C70.6737 96.7511 71.4078 95.7015 71.2374 93.9567C71.0145 91.569 69.0552 90.7687 66.4597 90.5457V87.2396H64.441V90.4539C63.9166 90.4539 63.3791 90.467 62.8417 90.4801V87.2396H60.823V90.5457C60.0808 90.5681 59.2163 90.5572 56.7725 90.5457V92.6972C58.3663 92.669 59.2026 92.5665 59.3942 93.5893V102.642C59.2725 103.453 58.6236 103.336 57.1788 103.311L56.7725 105.712C60.4533 105.712 60.823 105.725 60.823 105.725V108.556H62.8418V105.764C63.3923 105.777 63.9298 105.777 64.441 105.777V108.556H66.4597V105.725C69.8417 105.541 72.1026 104.688 72.4041 101.5C72.64 98.9421 71.434 97.8006 69.5202 97.3415ZM62.8811 92.8415C64.0215 92.8415 67.587 92.4874 67.587 94.8619C67.587 97.1316 64.0216 96.8692 62.8811 96.8692V92.8415ZM62.8811 103.324V98.8896C64.2444 98.8896 68.4191 98.5091 68.4191 101.107C68.419 103.612 64.2444 103.324 62.8811 103.324Z" fill="white"/>
<path d="M134.774 102.547C147.351 102.547 157.547 92.3511 157.547 79.7736C157.547 67.1961 147.351 57 134.774 57C122.196 57 112 67.1961 112 79.7736C112 92.3511 122.196 102.547 134.774 102.547Z" fill="#16B979"/>
<path d="M134.774 98.439C145.084 98.439 153.442 90.0812 153.442 79.7713C153.442 69.4615 145.084 61.1038 134.774 61.1038C124.464 61.1038 116.106 69.4615 116.106 79.7713C116.106 90.0812 124.464 98.439 134.774 98.439Z" fill="#5DD49C"/>
<rect x="125" y="80.7715" width="13.819" height="13.819" rx="0.98184" transform="rotate(-45 125 80.7715)" fill="#16B979"/>
<line x1="53.9639" y1="135.656" x2="154.673" y2="106.036" stroke="#6E7BF4" stroke-width="5.8" stroke-linecap="round"/>
<path d="M105.268 127C106.038 125.667 107.962 125.667 108.732 127L117.392 142C118.162 143.333 117.2 145 115.66 145H98.3397C96.8001 145 95.8379 143.333 96.6077 142L105.268 127Z" fill="#6E7BF4"/>
</svg>
