<svg width="200" height="200" viewBox="0 0 200 200" fill="none" xmlns="http://www.w3.org/2000/svg">
<circle cx="100" cy="100" r="89" fill="#FBFBFB"/>
<path d="M75.5 48C72.4648 48 70 45.5352 70 42.5C70 39.4648 72.4648 37 75.5 37C78.5352 37 81 39.4648 81 42.5C81 45.5352 78.5352 48 75.5 48ZM75.5 39.4444C73.8093 39.4444 72.4444 40.8093 72.4444 42.5C72.4444 44.1907 73.8093 45.5556 75.5 45.5556C77.1907 45.5556 78.5556 44.1907 78.5556 42.5C78.5556 40.8093 77.1907 39.4444 75.5 39.4444Z" fill="#31C48A"/>
<path d="M140.5 165C137.465 165 135 162.535 135 159.5C135 156.465 137.465 154 140.5 154C143.535 154 146 156.465 146 159.5C146 162.535 143.535 165 140.5 165ZM140.5 156.444C138.809 156.444 137.444 157.809 137.444 159.5C137.444 161.191 138.809 162.556 140.5 162.556C142.191 162.556 143.556 161.191 143.556 159.5C143.556 157.809 142.191 156.444 140.5 156.444Z" fill="#31C48A"/>
<path d="M46.8496 131.764V78.6637" stroke="#6E7BF4" stroke-width="6.32142"/>
<path d="M54.0005 83.0903L39.741 83.0903C38.9692 83.0903 38.4884 82.2531 38.8773 81.5864L46.1809 69.0659C46.5714 68.3964 47.5424 68.4066 47.9188 69.0842L54.8746 81.6046C55.2449 82.2712 54.7629 83.0903 54.0005 83.0903Z" fill="#6E7BF4" stroke="#6E7BF4" stroke-width="0.863414"/>
<path d="M161.9 67.5508V120.651" stroke="#6E7BF4" stroke-width="6.32142"/>
<path d="M169.049 116.224L154.79 116.224C154.018 116.224 153.537 117.061 153.926 117.728L161.23 130.249C161.62 130.918 162.591 130.908 162.968 130.23L169.923 117.71C170.294 117.043 169.812 116.224 169.049 116.224Z" fill="#6E7BF4" stroke="#6E7BF4" stroke-width="0.863414"/>
<path d="M102.452 153C118.56 153 131.619 139.942 131.619 123.833C131.619 107.725 118.56 94.6667 102.452 94.6667C86.3435 94.6667 73.2852 107.725 73.2852 123.833C73.2852 139.942 86.3435 153 102.452 153Z" fill="#16B979"/>
<path d="M102.452 147.741C115.656 147.741 126.36 137.037 126.36 123.833C126.36 110.629 115.656 99.9246 102.452 99.9246C89.2479 99.9246 78.5439 110.629 78.5439 123.833C78.5439 137.037 89.2479 147.741 102.452 147.741Z" fill="#5DD49C"/>
<rect x="91.7969" y="124.364" width="14.3177" height="14.3177" transform="rotate(-45 91.7969 124.364)" fill="#16B979"/>
<path d="M102.556 114.113C119.432 114.113 133.113 100.432 133.113 83.5565C133.113 66.6806 119.432 53 102.556 53C85.6806 53 72 66.6806 72 83.5565C72 100.432 85.6806 114.113 102.556 114.113Z" fill="#FF9D42"/>
<path d="M102.556 108.603C116.389 108.603 127.603 97.3889 127.603 83.5557C127.603 69.7224 116.389 58.5084 102.556 58.5084C88.7228 58.5084 77.5088 69.7224 77.5088 83.5557C77.5088 97.3889 88.7228 108.603 102.556 108.603Z" fill="#FAAD14"/>
<path d="M108.562 82.6814C110.094 81.8971 111.07 80.5027 110.843 78.1845C110.547 75.0123 107.944 73.9491 104.496 73.6529V69.2606H101.814V73.5309C101.117 73.5309 100.403 73.5483 99.6893 73.5657V69.2606H97.0073V73.6529C96.0212 73.6827 94.8728 73.6681 91.626 73.6529V76.5113C93.7435 76.4738 94.8545 76.3376 95.109 77.6965V89.7229C94.9474 90.801 94.0853 90.6457 92.1658 90.6118L91.626 93.8014C96.5161 93.8014 97.0073 93.8188 97.0073 93.8188V97.5803H99.6893V93.8711C100.421 93.8885 101.135 93.8885 101.814 93.8885V97.5803H104.496V93.8188C108.989 93.5748 111.993 92.4419 112.393 88.2065C112.707 84.8078 111.104 83.2914 108.562 82.6814ZM99.7415 76.703C101.257 76.703 105.994 76.2325 105.994 79.3872C105.994 82.4025 101.257 82.0539 99.7415 82.0539V76.703ZM99.7415 90.6292V84.738C101.553 84.738 107.099 84.2326 107.099 87.6837C107.099 91.0127 101.553 90.6292 99.7415 90.6292Z" fill="white"/>
</svg>
